<svg width="17" height="20" viewBox="0 0 17 20" fill="none" xmlns="http://www.w3.org/2000/svg">
<path d="M10.9873 3.20502C10.2825 4.04471 9.15492 4.707 8.02733 4.61239C7.88638 3.47703 8.43843 2.27071 9.08445 1.52564C9.7892 0.662291 11.0225 0.0473065 12.0209 0C12.1384 1.18266 11.6803 2.34167 10.9873 3.20502V3.20502Z" fill="black"/>
<path d="M12.0091 4.83708C10.3764 4.74247 8.97865 5.77138 8.20342 5.77138C7.41645 5.77138 6.23013 4.88439 4.93809 4.90804C3.25844 4.93169 1.69625 5.88965 0.838808 7.41528C-0.923062 10.4665 0.380722 14.9843 2.08386 17.4679C2.91781 18.6979 3.91621 20.0461 5.23174 19.9988C6.47679 19.9515 6.97011 19.1828 8.47358 19.1828C9.98878 19.1828 10.4234 19.9988 11.7389 19.9751C13.1014 19.9515 13.9589 18.7452 14.7928 17.5152C15.7442 16.1197 16.1318 14.7596 16.1553 14.6887C16.1318 14.665 13.5243 13.6597 13.5008 10.6321C13.4773 8.10123 15.5563 6.89491 15.6503 6.82395C14.4757 5.07361 12.6433 4.88439 12.0091 4.83708V4.83708Z" fill="black"/>
</svg>
