<svg width="20" height="20" viewBox="0 0 20 20" fill="none" xmlns="http://www.w3.org/2000/svg">
<path d="M20 9.94876C20 4.42596 15.5228 -0.051239 10 -0.051239C4.4772 -0.051239 0 4.42596 0 9.94876C0 14.6384 3.2288 18.5736 7.5844 19.6544V13.0048H5.5224V9.94876H7.5844V8.63196C7.5844 5.22836 9.1248 3.65076 12.4664 3.65076C13.1 3.65076 14.1932 3.77516 14.6404 3.89916V6.66916C14.4044 6.64436 13.9944 6.63196 13.4852 6.63196C11.8456 6.63196 11.212 7.25316 11.212 8.86796V9.94876H14.4784L13.9172 13.0048H11.212V19.8756C16.1636 19.2776 20.0004 15.0616 20.0004 9.94876H20Z" fill="#0866FF"/>
</svg>
